Coordinates
version=1
nRows=10
nColumns=22
inDegrees=yes

Units are S.I. units (second, meters, Newtons, ...)
If the header above contains a line with 'inDegrees', this indicates whether rotational values are in degrees (yes) or radians (no).

endheader
time	pelvis_tilt	pelvis_list	pelvis_rotation	pelvis_tx	pelvis_ty	pelvis_tz	hip_flexion_r	hip_adduction_r	hip_rotation_r	knee_angle_r	ankle_angle_r	subtalar_angle_r	hip_flexion_l	hip_adduction_l	hip_rotation_l	knee_angle_l	ankle_angle_l	subtalar_angle_l	lumbar_extension	lumbar_bending	lumbar_rotation
      2.28000000	    -18.90700652	     -1.87817281	    -24.17859658	     -1.14909967	      0.82933245	     -0.28885073	     45.18110747	      2.29013255	    -13.37916687	    -53.95389068	     15.28340824	      6.36461959	     -2.86969277	    -12.80072277	      9.45309445	    -36.34135454	     -4.85842295	     11.17260112	     -4.96155722	     13.18089452	      1.13078236
      2.29000000	    -18.45546400	     -1.17495424	    -24.56803077	     -1.13510049	      0.82721354	     -0.28001405	     43.11109707	      2.34394387	    -12.81962087	    -52.76210029	     16.41100861	      5.88900538	     -1.46637729	    -11.78499020	      9.31675993	    -40.20861595	     -7.29248494	     12.21497272	     -5.01957346	     12.54150914	      1.73032316
      2.30000000	    -17.96627356	     -0.52962169	    -25.03963543	     -1.12128885	      0.82428449	     -0.27119191	     41.14927738	      2.39363412	    -12.14917599	    -52.00336235	     18.02222276	      5.16040995	      0.08631747	    -10.86581458	      8.92650341	    -44.35222215	     -9.38603502	     13.14489756	     -5.17739635	     11.94233067	      2.45671279
      2.31000000	    -17.46600001	      0.02289396	    -25.61278316	     -1.10779803	      0.82060061	     -0.26236268	     39.35507731	      2.47902576	    -11.40841983	    -51.68277831	     20.05736865	      4.26961349	      1.77325698	    -10.11635639	      8.31628341	    -48.70408679	    -10.94239233	     14.09211017	     -5.44851003	     11.41151638	      3.36647026
      2.32000000	    -16.95579843	      0.44976530	    -26.30119816	     -1.09468625	      0.81635449	     -0.25354362	     37.72589031	      2.65361384	    -10.56751435	    -51.74960358	     22.31501801	      3.32520263	      3.55418731	     -9.58727604	      7.52495365	    -53.18450185	    -11.83296825	     15.03296915	     -5.86769263	     10.98026687	      4.43529998
      2.33000000	    -16.43966911	      0.75016672	    -27.11304751	     -1.08198079	      0.81174231	     -0.24476039	     36.25358706	      2.92838985	     -9.62191107	    -52.14656875	     24.63168921	      2.41208617	      5.40649340	     -9.27848605	      6.62383002	    -57.71919006	    -11.94814981	     15.93445616	     -6.44639881	     10.63889798	      5.67711657
      2.34000000	    -15.92285106	      0.91891860	    -28.05041027	     -1.06968032	      0.80700690	     -0.23601659	     34.88729111	      3.33053540	     -8.54472921	    -52.75933137	     26.87211968	      1.60594084	      7.31676355	     -9.19921107	      5.65604200	    -62.24555324	    -11.28477217	     16.73748782	     -7.19123408	     10.38701309	      7.04314130
      2.35000000	    -15.42425100	      0.98530937	    -29.08137549	     -1.05770880	      0.80235202	     -0.22737031	     33.58377049	      3.82675736	     -7.35383607	    -53.46673903	     28.94697613	      0.92826081	      9.31285992	     -9.31194460	      4.69810569	    -66.70074535	     -9.95542058	     17.40979596	     -8.05913972	     10.19805114	      8.50238867
      2.36000000	    -14.96241269	      0.98680086	    -30.17358323	     -1.04597798	      0.79795410	     -0.21881221	     32.29525282	      4.38033030	     -6.07509207	    -54.13917908	     30.81850820	      0.41344065	     11.42600090	     -9.58744000	      3.78065531	    -71.01770464	     -8.12133923	     17.90926860	     -8.99076170	     10.03939355	      9.98003789
      2.37000000	    -14.55550027	      0.97439601	    -31.27558272	     -1.03435405	      0.79395803	     -0.21034485	     30.98070697	      4.92698421	     -4.75232912	    -54.65470764	     32.49755472	      0.07446840	     13.69673790	     -9.97224272	      2.95139048	    -75.12471220	     -6.01447350	     18.22380067	     -9.90575535	      9.87131239	     11.44212529
